<mxfile host="app.diagrams.net" agent="Mozilla/5.0 (Windows NT 10.0; Win64; x64; rv:132.0) Gecko/20100101 Firefox/132.0" version="24.8.0">
  <diagram name="Page-1" id="_k14XuWL3U5JzWISn8Ct">
    <mxGraphModel dx="2924" dy="1134" grid="1" gridSize="10" guides="1" tooltips="1" connect="1" arrows="1" fold="1" page="1" pageScale="1" pageWidth="850" pageHeight="1100" math="0" shadow="0">
      <root>
        <mxCell id="0" />
        <mxCell id="1" parent="0" />
        <mxCell id="q_Xl--HB5Yd9Ks0ocNhp-1" value="2. User" style="rounded=1;whiteSpace=wrap;html=1;" vertex="1" parent="1">
          <mxGeometry x="250" y="290" width="120" height="60" as="geometry" />
        </mxCell>
        <mxCell id="q_Xl--HB5Yd9Ks0ocNhp-77" style="edgeStyle=orthogonalEdgeStyle;rounded=0;orthogonalLoop=1;jettySize=auto;html=1;exitX=1;exitY=0.5;exitDx=0;exitDy=0;entryX=0;entryY=0.5;entryDx=0;entryDy=0;" edge="1" parent="1" source="q_Xl--HB5Yd9Ks0ocNhp-2" target="q_Xl--HB5Yd9Ks0ocNhp-7">
          <mxGeometry relative="1" as="geometry" />
        </mxCell>
        <mxCell id="q_Xl--HB5Yd9Ks0ocNhp-78" value="Energy" style="edgeLabel;html=1;align=center;verticalAlign=middle;resizable=0;points=[];" vertex="1" connectable="0" parent="q_Xl--HB5Yd9Ks0ocNhp-77">
          <mxGeometry x="-0.225" y="1" relative="1" as="geometry">
            <mxPoint as="offset" />
          </mxGeometry>
        </mxCell>
        <mxCell id="q_Xl--HB5Yd9Ks0ocNhp-2" value="3. Energy Source" style="rounded=1;whiteSpace=wrap;html=1;" vertex="1" parent="1">
          <mxGeometry x="260" y="710" width="120" height="60" as="geometry" />
        </mxCell>
        <mxCell id="q_Xl--HB5Yd9Ks0ocNhp-16" style="edgeStyle=orthogonalEdgeStyle;rounded=0;orthogonalLoop=1;jettySize=auto;html=1;exitX=1;exitY=0.5;exitDx=0;exitDy=0;entryX=0;entryY=0.5;entryDx=0;entryDy=0;" edge="1" parent="1" source="q_Xl--HB5Yd9Ks0ocNhp-3" target="q_Xl--HB5Yd9Ks0ocNhp-9">
          <mxGeometry relative="1" as="geometry" />
        </mxCell>
        <mxCell id="q_Xl--HB5Yd9Ks0ocNhp-17" value="Order Data" style="edgeLabel;html=1;align=center;verticalAlign=middle;resizable=0;points=[];" vertex="1" connectable="0" parent="q_Xl--HB5Yd9Ks0ocNhp-16">
          <mxGeometry x="-0.2" relative="1" as="geometry">
            <mxPoint as="offset" />
          </mxGeometry>
        </mxCell>
        <mxCell id="q_Xl--HB5Yd9Ks0ocNhp-3" value="1. Order System" style="rounded=1;whiteSpace=wrap;html=1;" vertex="1" parent="1">
          <mxGeometry x="250" y="50" width="120" height="60" as="geometry" />
        </mxCell>
        <mxCell id="q_Xl--HB5Yd9Ks0ocNhp-39" style="edgeStyle=orthogonalEdgeStyle;rounded=0;orthogonalLoop=1;jettySize=auto;html=1;exitX=0.25;exitY=1;exitDx=0;exitDy=0;entryX=1;entryY=0.25;entryDx=0;entryDy=0;" edge="1" parent="1" source="q_Xl--HB5Yd9Ks0ocNhp-4" target="q_Xl--HB5Yd9Ks0ocNhp-38">
          <mxGeometry relative="1" as="geometry" />
        </mxCell>
        <mxCell id="q_Xl--HB5Yd9Ks0ocNhp-40" value="Status Data" style="edgeLabel;html=1;align=center;verticalAlign=middle;resizable=0;points=[];" vertex="1" connectable="0" parent="q_Xl--HB5Yd9Ks0ocNhp-39">
          <mxGeometry x="0.2914" y="-1" relative="1" as="geometry">
            <mxPoint as="offset" />
          </mxGeometry>
        </mxCell>
        <mxCell id="q_Xl--HB5Yd9Ks0ocNhp-41" style="edgeStyle=orthogonalEdgeStyle;rounded=0;orthogonalLoop=1;jettySize=auto;html=1;exitX=0.5;exitY=1;exitDx=0;exitDy=0;entryX=1;entryY=0.75;entryDx=0;entryDy=0;dashed=1;" edge="1" parent="1" source="q_Xl--HB5Yd9Ks0ocNhp-4" target="q_Xl--HB5Yd9Ks0ocNhp-38">
          <mxGeometry relative="1" as="geometry" />
        </mxCell>
        <mxCell id="q_Xl--HB5Yd9Ks0ocNhp-42" value="Finished Signal" style="edgeLabel;html=1;align=center;verticalAlign=middle;resizable=0;points=[];" vertex="1" connectable="0" parent="q_Xl--HB5Yd9Ks0ocNhp-41">
          <mxGeometry x="0.5064" y="-1" relative="1" as="geometry">
            <mxPoint as="offset" />
          </mxGeometry>
        </mxCell>
        <mxCell id="q_Xl--HB5Yd9Ks0ocNhp-4" value="5. Logistics System" style="rounded=1;whiteSpace=wrap;html=1;" vertex="1" parent="1">
          <mxGeometry x="960" y="260" width="120" height="60" as="geometry" />
        </mxCell>
        <mxCell id="q_Xl--HB5Yd9Ks0ocNhp-52" style="edgeStyle=orthogonalEdgeStyle;rounded=0;orthogonalLoop=1;jettySize=auto;html=1;exitX=0.25;exitY=1;exitDx=0;exitDy=0;entryX=1;entryY=0.25;entryDx=0;entryDy=0;" edge="1" parent="1" source="q_Xl--HB5Yd9Ks0ocNhp-5" target="q_Xl--HB5Yd9Ks0ocNhp-12">
          <mxGeometry relative="1" as="geometry" />
        </mxCell>
        <mxCell id="q_Xl--HB5Yd9Ks0ocNhp-53" value="Status Data" style="edgeLabel;html=1;align=center;verticalAlign=middle;resizable=0;points=[];" vertex="1" connectable="0" parent="q_Xl--HB5Yd9Ks0ocNhp-52">
          <mxGeometry x="0.3829" relative="1" as="geometry">
            <mxPoint as="offset" />
          </mxGeometry>
        </mxCell>
        <mxCell id="q_Xl--HB5Yd9Ks0ocNhp-54" style="edgeStyle=orthogonalEdgeStyle;rounded=0;orthogonalLoop=1;jettySize=auto;html=1;exitX=0.5;exitY=1;exitDx=0;exitDy=0;entryX=1;entryY=0.75;entryDx=0;entryDy=0;dashed=1;" edge="1" parent="1" source="q_Xl--HB5Yd9Ks0ocNhp-5" target="q_Xl--HB5Yd9Ks0ocNhp-12">
          <mxGeometry relative="1" as="geometry" />
        </mxCell>
        <mxCell id="q_Xl--HB5Yd9Ks0ocNhp-55" value="Finished Signal" style="edgeLabel;html=1;align=center;verticalAlign=middle;resizable=0;points=[];" vertex="1" connectable="0" parent="q_Xl--HB5Yd9Ks0ocNhp-54">
          <mxGeometry x="0.4298" y="4" relative="1" as="geometry">
            <mxPoint x="-7" y="-9" as="offset" />
          </mxGeometry>
        </mxCell>
        <mxCell id="q_Xl--HB5Yd9Ks0ocNhp-5" value="6. QA System" style="rounded=1;whiteSpace=wrap;html=1;" vertex="1" parent="1">
          <mxGeometry x="960" y="440" width="120" height="60" as="geometry" />
        </mxCell>
        <mxCell id="q_Xl--HB5Yd9Ks0ocNhp-27" style="edgeStyle=orthogonalEdgeStyle;rounded=0;orthogonalLoop=1;jettySize=auto;html=1;exitX=0.5;exitY=1;exitDx=0;exitDy=0;entryX=1;entryY=0.25;entryDx=0;entryDy=0;" edge="1" parent="1" source="q_Xl--HB5Yd9Ks0ocNhp-6" target="q_Xl--HB5Yd9Ks0ocNhp-10">
          <mxGeometry relative="1" as="geometry" />
        </mxCell>
        <mxCell id="q_Xl--HB5Yd9Ks0ocNhp-28" value="Status Data" style="edgeLabel;html=1;align=center;verticalAlign=middle;resizable=0;points=[];" vertex="1" connectable="0" parent="q_Xl--HB5Yd9Ks0ocNhp-27">
          <mxGeometry x="0.408" relative="1" as="geometry">
            <mxPoint as="offset" />
          </mxGeometry>
        </mxCell>
        <mxCell id="q_Xl--HB5Yd9Ks0ocNhp-29" style="edgeStyle=orthogonalEdgeStyle;rounded=0;orthogonalLoop=1;jettySize=auto;html=1;exitX=0.75;exitY=1;exitDx=0;exitDy=0;entryX=1;entryY=0.75;entryDx=0;entryDy=0;dashed=1;" edge="1" parent="1" source="q_Xl--HB5Yd9Ks0ocNhp-6" target="q_Xl--HB5Yd9Ks0ocNhp-10">
          <mxGeometry relative="1" as="geometry" />
        </mxCell>
        <mxCell id="q_Xl--HB5Yd9Ks0ocNhp-30" value="Finished Signal" style="edgeLabel;html=1;align=center;verticalAlign=middle;resizable=0;points=[];" vertex="1" connectable="0" parent="q_Xl--HB5Yd9Ks0ocNhp-29">
          <mxGeometry x="0.4576" y="-3" relative="1" as="geometry">
            <mxPoint as="offset" />
          </mxGeometry>
        </mxCell>
        <mxCell id="q_Xl--HB5Yd9Ks0ocNhp-6" value="4. 3D Printer" style="rounded=1;whiteSpace=wrap;html=1;" vertex="1" parent="1">
          <mxGeometry x="970" y="50" width="120" height="60" as="geometry" />
        </mxCell>
        <mxCell id="q_Xl--HB5Yd9Ks0ocNhp-7" value="12. Consume Electricity" style="rounded=0;whiteSpace=wrap;html=1;" vertex="1" parent="1">
          <mxGeometry x="460" y="710" width="120" height="60" as="geometry" />
        </mxCell>
        <mxCell id="q_Xl--HB5Yd9Ks0ocNhp-8" value="Receive emergency Signal" style="rounded=0;whiteSpace=wrap;html=1;" vertex="1" parent="1">
          <mxGeometry x="-180" y="400" width="120" height="60" as="geometry" />
        </mxCell>
        <mxCell id="q_Xl--HB5Yd9Ks0ocNhp-22" style="edgeStyle=orthogonalEdgeStyle;rounded=0;orthogonalLoop=1;jettySize=auto;html=1;exitX=1;exitY=0.25;exitDx=0;exitDy=0;entryX=0;entryY=0.25;entryDx=0;entryDy=0;" edge="1" parent="1" source="q_Xl--HB5Yd9Ks0ocNhp-9" target="q_Xl--HB5Yd9Ks0ocNhp-19">
          <mxGeometry relative="1" as="geometry" />
        </mxCell>
        <mxCell id="q_Xl--HB5Yd9Ks0ocNhp-23" value="Print File" style="edgeLabel;html=1;align=center;verticalAlign=middle;resizable=0;points=[];" vertex="1" connectable="0" parent="q_Xl--HB5Yd9Ks0ocNhp-22">
          <mxGeometry x="0.6563" y="1" relative="1" as="geometry">
            <mxPoint x="-58" y="1" as="offset" />
          </mxGeometry>
        </mxCell>
        <mxCell id="q_Xl--HB5Yd9Ks0ocNhp-9" value="1. Receive Print Order" style="rounded=0;whiteSpace=wrap;html=1;" vertex="1" parent="1">
          <mxGeometry x="450" y="50" width="120" height="60" as="geometry" />
        </mxCell>
        <mxCell id="q_Xl--HB5Yd9Ks0ocNhp-32" style="edgeStyle=orthogonalEdgeStyle;rounded=0;orthogonalLoop=1;jettySize=auto;html=1;exitX=0.5;exitY=1;exitDx=0;exitDy=0;entryX=0.5;entryY=0;entryDx=0;entryDy=0;" edge="1" parent="1" source="q_Xl--HB5Yd9Ks0ocNhp-10" target="q_Xl--HB5Yd9Ks0ocNhp-11">
          <mxGeometry relative="1" as="geometry" />
        </mxCell>
        <mxCell id="q_Xl--HB5Yd9Ks0ocNhp-33" value="3D Printer ID" style="edgeLabel;html=1;align=center;verticalAlign=middle;resizable=0;points=[];" vertex="1" connectable="0" parent="q_Xl--HB5Yd9Ks0ocNhp-32">
          <mxGeometry x="-0.1" relative="1" as="geometry">
            <mxPoint as="offset" />
          </mxGeometry>
        </mxCell>
        <mxCell id="q_Xl--HB5Yd9Ks0ocNhp-10" value="3. Receive Printing Status" style="rounded=0;whiteSpace=wrap;html=1;" vertex="1" parent="1">
          <mxGeometry x="740" y="160" width="120" height="60" as="geometry" />
        </mxCell>
        <mxCell id="q_Xl--HB5Yd9Ks0ocNhp-31" style="edgeStyle=orthogonalEdgeStyle;rounded=0;orthogonalLoop=1;jettySize=auto;html=1;exitX=1;exitY=0.25;exitDx=0;exitDy=0;entryX=0;entryY=0.25;entryDx=0;entryDy=0;" edge="1" parent="1" source="q_Xl--HB5Yd9Ks0ocNhp-11" target="q_Xl--HB5Yd9Ks0ocNhp-4">
          <mxGeometry relative="1" as="geometry" />
        </mxCell>
        <mxCell id="q_Xl--HB5Yd9Ks0ocNhp-34" value="Printer Position &amp;amp;&lt;br&gt;QA System ID" style="edgeLabel;html=1;align=center;verticalAlign=middle;resizable=0;points=[];" vertex="1" connectable="0" parent="q_Xl--HB5Yd9Ks0ocNhp-31">
          <mxGeometry x="-0.12" y="1" relative="1" as="geometry">
            <mxPoint as="offset" />
          </mxGeometry>
        </mxCell>
        <mxCell id="q_Xl--HB5Yd9Ks0ocNhp-35" style="edgeStyle=orthogonalEdgeStyle;rounded=0;orthogonalLoop=1;jettySize=auto;html=1;exitX=1;exitY=0.75;exitDx=0;exitDy=0;entryX=0;entryY=0.75;entryDx=0;entryDy=0;dashed=1;" edge="1" parent="1" source="q_Xl--HB5Yd9Ks0ocNhp-11" target="q_Xl--HB5Yd9Ks0ocNhp-4">
          <mxGeometry relative="1" as="geometry" />
        </mxCell>
        <mxCell id="q_Xl--HB5Yd9Ks0ocNhp-36" value="Start Signal" style="edgeLabel;html=1;align=center;verticalAlign=middle;resizable=0;points=[];" vertex="1" connectable="0" parent="q_Xl--HB5Yd9Ks0ocNhp-35">
          <mxGeometry x="-0.06" y="2" relative="1" as="geometry">
            <mxPoint as="offset" />
          </mxGeometry>
        </mxCell>
        <mxCell id="q_Xl--HB5Yd9Ks0ocNhp-58" style="edgeStyle=orthogonalEdgeStyle;rounded=0;orthogonalLoop=1;jettySize=auto;html=1;exitX=0.5;exitY=1;exitDx=0;exitDy=0;entryX=0.5;entryY=0;entryDx=0;entryDy=0;" edge="1" parent="1" source="q_Xl--HB5Yd9Ks0ocNhp-11" target="q_Xl--HB5Yd9Ks0ocNhp-38">
          <mxGeometry relative="1" as="geometry" />
        </mxCell>
        <mxCell id="q_Xl--HB5Yd9Ks0ocNhp-59" value="Transport Request" style="edgeLabel;html=1;align=center;verticalAlign=middle;resizable=0;points=[];" vertex="1" connectable="0" parent="q_Xl--HB5Yd9Ks0ocNhp-58">
          <mxGeometry x="-0.3333" relative="1" as="geometry">
            <mxPoint as="offset" />
          </mxGeometry>
        </mxCell>
        <mxCell id="q_Xl--HB5Yd9Ks0ocNhp-11" value="4. Pick up Printed Product" style="rounded=0;whiteSpace=wrap;html=1;" vertex="1" parent="1">
          <mxGeometry x="740" y="260" width="120" height="60" as="geometry" />
        </mxCell>
        <mxCell id="q_Xl--HB5Yd9Ks0ocNhp-12" value="7. Receive Quality Data" style="rounded=0;whiteSpace=wrap;html=1;" vertex="1" parent="1">
          <mxGeometry x="740" y="530" width="120" height="60" as="geometry" />
        </mxCell>
        <mxCell id="q_Xl--HB5Yd9Ks0ocNhp-43" style="edgeStyle=orthogonalEdgeStyle;rounded=0;orthogonalLoop=1;jettySize=auto;html=1;exitX=1;exitY=0.25;exitDx=0;exitDy=0;entryX=0;entryY=0.25;entryDx=0;entryDy=0;" edge="1" parent="1" source="q_Xl--HB5Yd9Ks0ocNhp-13" target="q_Xl--HB5Yd9Ks0ocNhp-5">
          <mxGeometry relative="1" as="geometry" />
        </mxCell>
        <mxCell id="q_Xl--HB5Yd9Ks0ocNhp-44" value="QA System ID" style="edgeLabel;html=1;align=center;verticalAlign=middle;resizable=0;points=[];" vertex="1" connectable="0" parent="q_Xl--HB5Yd9Ks0ocNhp-43">
          <mxGeometry x="0.1" y="1" relative="1" as="geometry">
            <mxPoint x="-5" as="offset" />
          </mxGeometry>
        </mxCell>
        <mxCell id="q_Xl--HB5Yd9Ks0ocNhp-50" style="edgeStyle=orthogonalEdgeStyle;rounded=0;orthogonalLoop=1;jettySize=auto;html=1;exitX=1;exitY=0.75;exitDx=0;exitDy=0;entryX=0;entryY=0.75;entryDx=0;entryDy=0;dashed=1;" edge="1" parent="1" source="q_Xl--HB5Yd9Ks0ocNhp-13" target="q_Xl--HB5Yd9Ks0ocNhp-5">
          <mxGeometry relative="1" as="geometry" />
        </mxCell>
        <mxCell id="q_Xl--HB5Yd9Ks0ocNhp-51" value="Start Signal" style="edgeLabel;html=1;align=center;verticalAlign=middle;resizable=0;points=[];" vertex="1" connectable="0" parent="q_Xl--HB5Yd9Ks0ocNhp-50">
          <mxGeometry x="0.06" relative="1" as="geometry">
            <mxPoint as="offset" />
          </mxGeometry>
        </mxCell>
        <mxCell id="q_Xl--HB5Yd9Ks0ocNhp-60" style="edgeStyle=orthogonalEdgeStyle;rounded=0;orthogonalLoop=1;jettySize=auto;html=1;exitX=0.5;exitY=1;exitDx=0;exitDy=0;entryX=0.5;entryY=0;entryDx=0;entryDy=0;" edge="1" parent="1" source="q_Xl--HB5Yd9Ks0ocNhp-13" target="q_Xl--HB5Yd9Ks0ocNhp-12">
          <mxGeometry relative="1" as="geometry" />
        </mxCell>
        <mxCell id="q_Xl--HB5Yd9Ks0ocNhp-61" value="QA Check Request" style="edgeLabel;html=1;align=center;verticalAlign=middle;resizable=0;points=[];" vertex="1" connectable="0" parent="q_Xl--HB5Yd9Ks0ocNhp-60">
          <mxGeometry x="-0.2667" y="-1" relative="1" as="geometry">
            <mxPoint as="offset" />
          </mxGeometry>
        </mxCell>
        <mxCell id="q_Xl--HB5Yd9Ks0ocNhp-13" value="6. Initialize QA Process" style="rounded=0;whiteSpace=wrap;html=1;" vertex="1" parent="1">
          <mxGeometry x="740" y="440" width="120" height="60" as="geometry" />
        </mxCell>
        <mxCell id="q_Xl--HB5Yd9Ks0ocNhp-14" value="Handle Current Product Status" style="rounded=0;whiteSpace=wrap;html=1;" vertex="1" parent="1">
          <mxGeometry x="-180" y="520" width="120" height="60" as="geometry" />
        </mxCell>
        <mxCell id="q_Xl--HB5Yd9Ks0ocNhp-15" value="Process Information of other Systems" style="rounded=0;whiteSpace=wrap;html=1;" vertex="1" parent="1">
          <mxGeometry x="-180" y="460" width="120" height="60" as="geometry" />
        </mxCell>
        <mxCell id="q_Xl--HB5Yd9Ks0ocNhp-20" style="edgeStyle=orthogonalEdgeStyle;rounded=0;orthogonalLoop=1;jettySize=auto;html=1;exitX=1;exitY=0.25;exitDx=0;exitDy=0;entryX=0;entryY=0.25;entryDx=0;entryDy=0;" edge="1" parent="1" source="q_Xl--HB5Yd9Ks0ocNhp-19" target="q_Xl--HB5Yd9Ks0ocNhp-6">
          <mxGeometry relative="1" as="geometry" />
        </mxCell>
        <mxCell id="q_Xl--HB5Yd9Ks0ocNhp-21" value="Print File" style="edgeLabel;html=1;align=center;verticalAlign=middle;resizable=0;points=[];" vertex="1" connectable="0" parent="q_Xl--HB5Yd9Ks0ocNhp-20">
          <mxGeometry x="-0.5077" y="-1" relative="1" as="geometry">
            <mxPoint x="23" y="-1" as="offset" />
          </mxGeometry>
        </mxCell>
        <mxCell id="q_Xl--HB5Yd9Ks0ocNhp-25" style="edgeStyle=orthogonalEdgeStyle;rounded=0;orthogonalLoop=1;jettySize=auto;html=1;exitX=1;exitY=0.75;exitDx=0;exitDy=0;entryX=0;entryY=0.75;entryDx=0;entryDy=0;dashed=1;" edge="1" parent="1" source="q_Xl--HB5Yd9Ks0ocNhp-19" target="q_Xl--HB5Yd9Ks0ocNhp-6">
          <mxGeometry relative="1" as="geometry" />
        </mxCell>
        <mxCell id="q_Xl--HB5Yd9Ks0ocNhp-26" value="Start Signal" style="edgeLabel;html=1;align=center;verticalAlign=middle;resizable=0;points=[];" vertex="1" connectable="0" parent="q_Xl--HB5Yd9Ks0ocNhp-25">
          <mxGeometry x="-0.0444" relative="1" as="geometry">
            <mxPoint as="offset" />
          </mxGeometry>
        </mxCell>
        <mxCell id="q_Xl--HB5Yd9Ks0ocNhp-56" style="edgeStyle=orthogonalEdgeStyle;rounded=0;orthogonalLoop=1;jettySize=auto;html=1;exitX=0.5;exitY=1;exitDx=0;exitDy=0;entryX=0.5;entryY=0;entryDx=0;entryDy=0;" edge="1" parent="1" source="q_Xl--HB5Yd9Ks0ocNhp-19" target="q_Xl--HB5Yd9Ks0ocNhp-10">
          <mxGeometry relative="1" as="geometry" />
        </mxCell>
        <mxCell id="q_Xl--HB5Yd9Ks0ocNhp-57" value="Print Request" style="edgeLabel;html=1;align=center;verticalAlign=middle;resizable=0;points=[];" vertex="1" connectable="0" parent="q_Xl--HB5Yd9Ks0ocNhp-56">
          <mxGeometry x="-0.12" relative="1" as="geometry">
            <mxPoint as="offset" />
          </mxGeometry>
        </mxCell>
        <mxCell id="q_Xl--HB5Yd9Ks0ocNhp-19" value="2. Dispatch Order" style="rounded=0;whiteSpace=wrap;html=1;" vertex="1" parent="1">
          <mxGeometry x="740" y="50" width="120" height="60" as="geometry" />
        </mxCell>
        <mxCell id="q_Xl--HB5Yd9Ks0ocNhp-45" style="edgeStyle=orthogonalEdgeStyle;rounded=0;orthogonalLoop=1;jettySize=auto;html=1;exitX=0.5;exitY=1;exitDx=0;exitDy=0;entryX=0.5;entryY=0;entryDx=0;entryDy=0;" edge="1" parent="1" source="q_Xl--HB5Yd9Ks0ocNhp-38" target="q_Xl--HB5Yd9Ks0ocNhp-13">
          <mxGeometry relative="1" as="geometry" />
        </mxCell>
        <mxCell id="q_Xl--HB5Yd9Ks0ocNhp-46" value="QA System ID" style="edgeLabel;html=1;align=center;verticalAlign=middle;resizable=0;points=[];" vertex="1" connectable="0" parent="q_Xl--HB5Yd9Ks0ocNhp-45">
          <mxGeometry x="-0.1333" relative="1" as="geometry">
            <mxPoint as="offset" />
          </mxGeometry>
        </mxCell>
        <mxCell id="q_Xl--HB5Yd9Ks0ocNhp-38" value="5. Receive Printer to QA System Transport Status" style="rounded=0;whiteSpace=wrap;html=1;" vertex="1" parent="1">
          <mxGeometry x="740" y="350" width="120" height="60" as="geometry" />
        </mxCell>
        <mxCell id="q_Xl--HB5Yd9Ks0ocNhp-62" style="edgeStyle=orthogonalEdgeStyle;rounded=0;orthogonalLoop=1;jettySize=auto;html=1;exitX=0.25;exitY=1;exitDx=0;exitDy=0;entryX=1;entryY=0.25;entryDx=0;entryDy=0;" edge="1" parent="1" source="q_Xl--HB5Yd9Ks0ocNhp-66" target="q_Xl--HB5Yd9Ks0ocNhp-74">
          <mxGeometry relative="1" as="geometry" />
        </mxCell>
        <mxCell id="q_Xl--HB5Yd9Ks0ocNhp-63" value="Status Data" style="edgeLabel;html=1;align=center;verticalAlign=middle;resizable=0;points=[];" vertex="1" connectable="0" parent="q_Xl--HB5Yd9Ks0ocNhp-62">
          <mxGeometry x="0.2914" y="-1" relative="1" as="geometry">
            <mxPoint as="offset" />
          </mxGeometry>
        </mxCell>
        <mxCell id="q_Xl--HB5Yd9Ks0ocNhp-64" style="edgeStyle=orthogonalEdgeStyle;rounded=0;orthogonalLoop=1;jettySize=auto;html=1;exitX=0.5;exitY=1;exitDx=0;exitDy=0;entryX=1;entryY=0.75;entryDx=0;entryDy=0;dashed=1;" edge="1" parent="1" source="q_Xl--HB5Yd9Ks0ocNhp-66" target="q_Xl--HB5Yd9Ks0ocNhp-74">
          <mxGeometry relative="1" as="geometry" />
        </mxCell>
        <mxCell id="q_Xl--HB5Yd9Ks0ocNhp-65" value="Finished Signal" style="edgeLabel;html=1;align=center;verticalAlign=middle;resizable=0;points=[];" vertex="1" connectable="0" parent="q_Xl--HB5Yd9Ks0ocNhp-64">
          <mxGeometry x="0.5064" y="-1" relative="1" as="geometry">
            <mxPoint as="offset" />
          </mxGeometry>
        </mxCell>
        <mxCell id="q_Xl--HB5Yd9Ks0ocNhp-66" value="5. Logistics System" style="rounded=1;whiteSpace=wrap;html=1;" vertex="1" parent="1">
          <mxGeometry x="960" y="620" width="120" height="60" as="geometry" />
        </mxCell>
        <mxCell id="q_Xl--HB5Yd9Ks0ocNhp-67" style="edgeStyle=orthogonalEdgeStyle;rounded=0;orthogonalLoop=1;jettySize=auto;html=1;exitX=1;exitY=0.25;exitDx=0;exitDy=0;entryX=0;entryY=0.25;entryDx=0;entryDy=0;" edge="1" parent="1" source="q_Xl--HB5Yd9Ks0ocNhp-73" target="q_Xl--HB5Yd9Ks0ocNhp-66">
          <mxGeometry relative="1" as="geometry" />
        </mxCell>
        <mxCell id="q_Xl--HB5Yd9Ks0ocNhp-68" value="QA System ID &amp;amp;&lt;br&gt;Shipping ID" style="edgeLabel;html=1;align=center;verticalAlign=middle;resizable=0;points=[];" vertex="1" connectable="0" parent="q_Xl--HB5Yd9Ks0ocNhp-67">
          <mxGeometry x="-0.12" y="1" relative="1" as="geometry">
            <mxPoint as="offset" />
          </mxGeometry>
        </mxCell>
        <mxCell id="q_Xl--HB5Yd9Ks0ocNhp-69" style="edgeStyle=orthogonalEdgeStyle;rounded=0;orthogonalLoop=1;jettySize=auto;html=1;exitX=1;exitY=0.75;exitDx=0;exitDy=0;entryX=0;entryY=0.75;entryDx=0;entryDy=0;dashed=1;" edge="1" parent="1" source="q_Xl--HB5Yd9Ks0ocNhp-73" target="q_Xl--HB5Yd9Ks0ocNhp-66">
          <mxGeometry relative="1" as="geometry" />
        </mxCell>
        <mxCell id="q_Xl--HB5Yd9Ks0ocNhp-70" value="Start Signal" style="edgeLabel;html=1;align=center;verticalAlign=middle;resizable=0;points=[];" vertex="1" connectable="0" parent="q_Xl--HB5Yd9Ks0ocNhp-69">
          <mxGeometry x="-0.06" y="2" relative="1" as="geometry">
            <mxPoint as="offset" />
          </mxGeometry>
        </mxCell>
        <mxCell id="q_Xl--HB5Yd9Ks0ocNhp-71" style="edgeStyle=orthogonalEdgeStyle;rounded=0;orthogonalLoop=1;jettySize=auto;html=1;exitX=0.5;exitY=1;exitDx=0;exitDy=0;entryX=0.5;entryY=0;entryDx=0;entryDy=0;" edge="1" parent="1" source="q_Xl--HB5Yd9Ks0ocNhp-73" target="q_Xl--HB5Yd9Ks0ocNhp-74">
          <mxGeometry relative="1" as="geometry" />
        </mxCell>
        <mxCell id="q_Xl--HB5Yd9Ks0ocNhp-72" value="Transport Request" style="edgeLabel;html=1;align=center;verticalAlign=middle;resizable=0;points=[];" vertex="1" connectable="0" parent="q_Xl--HB5Yd9Ks0ocNhp-71">
          <mxGeometry x="-0.3333" relative="1" as="geometry">
            <mxPoint as="offset" />
          </mxGeometry>
        </mxCell>
        <mxCell id="q_Xl--HB5Yd9Ks0ocNhp-73" value="8. Pick up Checked Product" style="rounded=0;whiteSpace=wrap;html=1;" vertex="1" parent="1">
          <mxGeometry x="740" y="620" width="120" height="60" as="geometry" />
        </mxCell>
        <mxCell id="q_Xl--HB5Yd9Ks0ocNhp-74" value="9. Receive QA to Storage " style="rounded=0;whiteSpace=wrap;html=1;" vertex="1" parent="1">
          <mxGeometry x="740" y="710" width="120" height="60" as="geometry" />
        </mxCell>
        <mxCell id="q_Xl--HB5Yd9Ks0ocNhp-82" style="edgeStyle=orthogonalEdgeStyle;rounded=0;orthogonalLoop=1;jettySize=auto;html=1;exitX=0;exitY=0.5;exitDx=0;exitDy=0;entryX=0.5;entryY=1;entryDx=0;entryDy=0;" edge="1" parent="1" source="q_Xl--HB5Yd9Ks0ocNhp-80" target="q_Xl--HB5Yd9Ks0ocNhp-3">
          <mxGeometry relative="1" as="geometry">
            <mxPoint x="960" y="830" as="targetPoint" />
          </mxGeometry>
        </mxCell>
        <mxCell id="q_Xl--HB5Yd9Ks0ocNhp-84" value="Order Data" style="edgeLabel;html=1;align=center;verticalAlign=middle;resizable=0;points=[];" vertex="1" connectable="0" parent="q_Xl--HB5Yd9Ks0ocNhp-82">
          <mxGeometry x="-0.1" relative="1" as="geometry">
            <mxPoint as="offset" />
          </mxGeometry>
        </mxCell>
        <mxCell id="q_Xl--HB5Yd9Ks0ocNhp-80" value="10. Update Order" style="rounded=0;whiteSpace=wrap;html=1;" vertex="1" parent="1">
          <mxGeometry x="360" y="180" width="120" height="60" as="geometry" />
        </mxCell>
        <mxCell id="q_Xl--HB5Yd9Ks0ocNhp-88" style="edgeStyle=orthogonalEdgeStyle;rounded=0;orthogonalLoop=1;jettySize=auto;html=1;exitX=0.75;exitY=1;exitDx=0;exitDy=0;entryX=0;entryY=0.75;entryDx=0;entryDy=0;" edge="1" parent="1" source="q_Xl--HB5Yd9Ks0ocNhp-85" target="q_Xl--HB5Yd9Ks0ocNhp-73">
          <mxGeometry relative="1" as="geometry" />
        </mxCell>
        <mxCell id="q_Xl--HB5Yd9Ks0ocNhp-89" value="QA System ID &amp;amp;&lt;br&gt;Shipping Information" style="edgeLabel;html=1;align=center;verticalAlign=middle;resizable=0;points=[];" vertex="1" connectable="0" parent="q_Xl--HB5Yd9Ks0ocNhp-88">
          <mxGeometry x="0.0087" y="2" relative="1" as="geometry">
            <mxPoint x="-23" as="offset" />
          </mxGeometry>
        </mxCell>
        <mxCell id="q_Xl--HB5Yd9Ks0ocNhp-90" style="edgeStyle=orthogonalEdgeStyle;rounded=0;orthogonalLoop=1;jettySize=auto;html=1;exitX=0.5;exitY=0;exitDx=0;exitDy=0;entryX=0;entryY=0.75;entryDx=0;entryDy=0;" edge="1" parent="1" source="q_Xl--HB5Yd9Ks0ocNhp-85" target="q_Xl--HB5Yd9Ks0ocNhp-19">
          <mxGeometry relative="1" as="geometry">
            <Array as="points">
              <mxPoint x="620" y="95" />
            </Array>
          </mxGeometry>
        </mxCell>
        <mxCell id="q_Xl--HB5Yd9Ks0ocNhp-91" value="Retry Print Job" style="edgeLabel;html=1;align=center;verticalAlign=middle;resizable=0;points=[];" vertex="1" connectable="0" parent="q_Xl--HB5Yd9Ks0ocNhp-90">
          <mxGeometry x="0.7289" y="1" relative="1" as="geometry">
            <mxPoint x="12" as="offset" />
          </mxGeometry>
        </mxCell>
        <mxCell id="q_Xl--HB5Yd9Ks0ocNhp-85" value="11. Handle Quality Information" style="rounded=0;whiteSpace=wrap;html=1;" vertex="1" parent="1">
          <mxGeometry x="560" y="580" width="120" height="60" as="geometry" />
        </mxCell>
        <mxCell id="q_Xl--HB5Yd9Ks0ocNhp-86" style="edgeStyle=orthogonalEdgeStyle;rounded=0;orthogonalLoop=1;jettySize=auto;html=1;exitX=0;exitY=0.5;exitDx=0;exitDy=0;entryX=0.75;entryY=0;entryDx=0;entryDy=0;" edge="1" parent="1" source="q_Xl--HB5Yd9Ks0ocNhp-12" target="q_Xl--HB5Yd9Ks0ocNhp-85">
          <mxGeometry relative="1" as="geometry" />
        </mxCell>
        <mxCell id="q_Xl--HB5Yd9Ks0ocNhp-87" value="QA Report" style="edgeLabel;html=1;align=center;verticalAlign=middle;resizable=0;points=[];" vertex="1" connectable="0" parent="q_Xl--HB5Yd9Ks0ocNhp-86">
          <mxGeometry x="-0.0182" y="-1" relative="1" as="geometry">
            <mxPoint as="offset" />
          </mxGeometry>
        </mxCell>
        <mxCell id="q_Xl--HB5Yd9Ks0ocNhp-92" value="" style="shape=table;startSize=0;container=1;collapsible=0;childLayout=tableLayout;fontSize=11;fillColor=none;strokeColor=none;" vertex="1" parent="1">
          <mxGeometry x="550" y="180" width="60" height="45" as="geometry" />
        </mxCell>
        <mxCell id="q_Xl--HB5Yd9Ks0ocNhp-95" value="" style="shape=tableRow;horizontal=0;startSize=0;swimlaneHead=0;swimlaneBody=0;strokeColor=inherit;top=0;left=0;bottom=0;right=0;collapsible=0;dropTarget=0;fillColor=none;points=[[0,0.5],[1,0.5]];portConstraint=eastwest;fontSize=16;" vertex="1" parent="q_Xl--HB5Yd9Ks0ocNhp-92">
          <mxGeometry width="60" height="15" as="geometry" />
        </mxCell>
        <mxCell id="q_Xl--HB5Yd9Ks0ocNhp-96" value="F3" style="shape=partialRectangle;html=1;whiteSpace=wrap;connectable=0;strokeColor=inherit;overflow=hidden;fillColor=none;top=0;left=0;bottom=0;right=0;pointerEvents=1;fontSize=12;align=left;spacingLeft=5;" vertex="1" parent="q_Xl--HB5Yd9Ks0ocNhp-95">
          <mxGeometry width="60" height="15" as="geometry">
            <mxRectangle width="60" height="15" as="alternateBounds" />
          </mxGeometry>
        </mxCell>
        <mxCell id="q_Xl--HB5Yd9Ks0ocNhp-97" value="" style="shape=tableRow;horizontal=0;startSize=0;swimlaneHead=0;swimlaneBody=0;strokeColor=inherit;top=0;left=0;bottom=0;right=0;collapsible=0;dropTarget=0;fillColor=none;points=[[0,0.5],[1,0.5]];portConstraint=eastwest;fontSize=16;" vertex="1" parent="q_Xl--HB5Yd9Ks0ocNhp-92">
          <mxGeometry y="15" width="60" height="15" as="geometry" />
        </mxCell>
        <mxCell id="q_Xl--HB5Yd9Ks0ocNhp-98" value="F5" style="shape=partialRectangle;html=1;whiteSpace=wrap;connectable=0;strokeColor=inherit;overflow=hidden;fillColor=none;top=0;left=0;bottom=0;right=0;pointerEvents=1;fontSize=12;align=left;spacingLeft=5;" vertex="1" parent="q_Xl--HB5Yd9Ks0ocNhp-97">
          <mxGeometry width="60" height="15" as="geometry">
            <mxRectangle width="60" height="15" as="alternateBounds" />
          </mxGeometry>
        </mxCell>
        <mxCell id="q_Xl--HB5Yd9Ks0ocNhp-99" style="shape=tableRow;horizontal=0;startSize=0;swimlaneHead=0;swimlaneBody=0;strokeColor=inherit;top=0;left=0;bottom=0;right=0;collapsible=0;dropTarget=0;fillColor=none;points=[[0,0.5],[1,0.5]];portConstraint=eastwest;fontSize=16;" vertex="1" parent="q_Xl--HB5Yd9Ks0ocNhp-92">
          <mxGeometry y="30" width="60" height="15" as="geometry" />
        </mxCell>
        <mxCell id="q_Xl--HB5Yd9Ks0ocNhp-100" value="F7" style="shape=partialRectangle;html=1;whiteSpace=wrap;connectable=0;strokeColor=inherit;overflow=hidden;fillColor=none;top=0;left=0;bottom=0;right=0;pointerEvents=1;fontSize=12;align=left;spacingLeft=5;" vertex="1" parent="q_Xl--HB5Yd9Ks0ocNhp-99">
          <mxGeometry width="60" height="15" as="geometry">
            <mxRectangle width="60" height="15" as="alternateBounds" />
          </mxGeometry>
        </mxCell>
        <mxCell id="q_Xl--HB5Yd9Ks0ocNhp-101" value="F9" style="shape=partialRectangle;html=1;whiteSpace=wrap;connectable=0;strokeColor=inherit;overflow=hidden;fillColor=none;top=0;left=0;bottom=0;right=0;pointerEvents=1;fontSize=12;align=left;spacingLeft=5;" vertex="1" parent="1">
          <mxGeometry x="550" y="225" width="60" height="15" as="geometry">
            <mxRectangle width="60" height="15" as="alternateBounds" />
          </mxGeometry>
        </mxCell>
        <mxCell id="q_Xl--HB5Yd9Ks0ocNhp-102" style="edgeStyle=orthogonalEdgeStyle;rounded=0;orthogonalLoop=1;jettySize=auto;html=1;exitX=0;exitY=0.5;exitDx=0;exitDy=0;entryX=1;entryY=0.5;entryDx=0;entryDy=0;" edge="1" parent="1" source="q_Xl--HB5Yd9Ks0ocNhp-99" target="q_Xl--HB5Yd9Ks0ocNhp-80">
          <mxGeometry relative="1" as="geometry" />
        </mxCell>
        <mxCell id="q_Xl--HB5Yd9Ks0ocNhp-103" value="Status &lt;br&gt;Info" style="edgeLabel;html=1;align=center;verticalAlign=middle;resizable=0;points=[];" vertex="1" connectable="0" parent="q_Xl--HB5Yd9Ks0ocNhp-102">
          <mxGeometry x="0.0452" y="-1" relative="1" as="geometry">
            <mxPoint y="1" as="offset" />
          </mxGeometry>
        </mxCell>
      </root>
    </mxGraphModel>
  </diagram>
</mxfile>
